<?xml version="1.0" encoding="utf-8"?>
<!-- Generator: Adobe Illustrator 24.0.2, SVG Export Plug-In . SVG Version: 6.00 Build 0)  -->
<svg version="1.1" id="RED_PANDA" xmlns="http://www.w3.org/2000/svg" xmlns:xlink="http://www.w3.org/1999/xlink" x="0px" y="0px"
	 viewBox="0 0 4000 4000" style="enable-background:new 0 0 4000 4000;" xml:space="preserve">
<style type="text/css">
	.st0{fill:#310047;}
	.st1{fill:#FFFFFF;}
	.st2{fill:#7A0BC0;}
	.st3{opacity:0.5;}
	.st4{opacity:0.25;}
	.st5{fill:#FF67E7;}
	.st6{fill:#29ED49;}
	.st7{fill:#EF1B71;}
</style>
<g>
	<rect class="st0" width="4000" height="4000"/>
</g>
<g>
	<g>
		<path class="st1" d="M425.53,1066.7c4.06-0.29,17.94-1.78,29.78-13.03c14.29-13.58,14.85-31.14,14.89-34.44
			c0.24,4.96,1.47,15.77,8.84,26.53c10.64,15.53,26.52,19.92,30.71,20.94c-4.49,0.26-12.67,1.43-20.48,6.98
			c-17.84,12.68-16.87,36.2-16.75,38.16C472.53,1111.84,468.81,1062.52,425.53,1066.7z"/>
	</g>
</g>
<g>
	<g>
		<path class="st1" d="M991.29,2701.41c5.5-0.39,24.33-2.41,40.39-17.67c19.38-18.41,20.14-42.23,20.2-46.7
			c0.33,6.73,1.99,21.38,11.99,35.98c14.43,21.06,35.96,27.01,41.66,28.4c-6.1,0.35-17.18,1.94-27.77,9.47
			c-24.19,17.2-22.87,49.09-22.72,51.75C1055.03,2762.63,1049.99,2695.73,991.29,2701.41z"/>
	</g>
</g>
<g>
	<g>
		<path class="st1" d="M2903.38,453.82c4.57-0.32,20.22-2,33.56-14.68c16.1-15.3,16.73-35.09,16.78-38.81
			c0.27,5.59,1.65,17.77,9.96,29.89c11.99,17.5,29.88,22.45,34.61,23.6c-5.06,0.29-14.27,1.61-23.07,7.87
			c-20.1,14.29-19.01,40.79-18.88,43C2956.34,504.69,2952.14,449.1,2903.38,453.82z"/>
	</g>
</g>
<g>
	<g>
		<path class="st1" d="M1628.9,3791.13c3.21-0.23,14.19-1.4,23.56-10.31c11.3-10.74,11.75-24.64,11.78-27.25
			c0.19,3.92,1.16,12.47,7,20.99c8.42,12.28,20.98,15.76,24.3,16.57c-3.56,0.21-10.02,1.13-16.2,5.52
			c-14.11,10.03-13.34,28.64-13.25,30.19C1666.08,3826.84,1663.14,3787.82,1628.9,3791.13z"/>
	</g>
</g>
<g>
	<g>
		<path class="st1" d="M3564.96,844.58c-5-8.05-2.52-18.63,5.52-23.62c8.05-5,18.63-2.52,23.62,5.52c5,8.05,2.52,18.63-5.52,23.62
			S3569.96,852.62,3564.96,844.58z"/>
	</g>
</g>
<g>
	<g>
		<path class="st1" d="M322.15,2324.73c6.69-0.47,29.61-2.93,49.16-21.51c23.58-22.41,24.51-51.4,24.58-56.85
			c0.4,8.19,2.42,26.02,14.6,43.79c17.56,25.63,43.77,32.88,50.7,34.57c-7.42,0.43-20.91,2.36-33.8,11.52
			c-29.45,20.93-27.84,59.76-27.66,62.99C399.74,2399.24,393.59,2317.81,322.15,2324.73z"/>
	</g>
</g>
<g>
	<g>
		<path class="st1" d="M600.96,1607.24c-4.96-7.99-2.51-18.48,5.48-23.44c7.99-4.96,18.48-2.51,23.44,5.48
			c4.96,7.99,2.51,18.48-5.48,23.44C616.42,1617.68,605.92,1615.23,600.96,1607.24z"/>
	</g>
</g>
<g>
	<g>
		<path class="st1" d="M3148.53,1879.7c4.06-0.29,17.94-1.78,29.78-13.03c14.29-13.58,14.85-31.14,14.89-34.44
			c0.24,4.96,1.47,15.77,8.84,26.53c10.64,15.53,26.52,19.92,30.71,20.94c-4.49,0.26-12.67,1.43-20.48,6.98
			c-17.84,12.68-16.87,36.2-16.75,38.16C3195.53,1924.84,3191.81,1875.52,3148.53,1879.7z"/>
	</g>
</g>
<g>
	<g>
		<ellipse class="st1" cx="425.7" cy="3242.94" rx="20.19" ry="22.41"/>
	</g>
</g>
<g>
	<g>
		
			<ellipse transform="matrix(0.2298 -0.9732 0.9732 0.2298 994.547 3612.7378)" class="st1" cx="2779.72" cy="1178.04" rx="16.71" ry="16.71"/>
	</g>
</g>
<g>
	<g>
		
			<ellipse transform="matrix(0.6589 -0.7522 0.7522 0.6589 -1662.0851 3387.0222)" class="st1" cx="2903.54" cy="3526.15" rx="15.1" ry="15.1"/>
	</g>
</g>
<g>
	<g>
		<circle class="st1" cx="1048.56" cy="396.9" r="20.2"/>
	</g>
</g>
<g>
	<g>
		<circle class="st1" cx="2161.35" cy="286.93" r="19.14"/>
	</g>
</g>
<g>
	<path class="st2" d="M3023.48,2751.55c-21.33-31.37-56.75-50.2-94.68-50.17c-155.24,0.1-324.66,11.57-504.85,41.13
		c-714.09,117.14-1242.89,460.1-1563.43,721c-33.86,27.56-18.69,82.23,24.53,88.34c340.79,48.14,1414.13,138.92,2217.91-465.48
		c44.01-33.09,57.99-92.99,33.39-142.25c-13.3-26.63-27.91-54.11-43.98-82.22C3069.56,2821.96,3046.36,2785.19,3023.48,2751.55z"/>
	<path d="M1403.55,3604.51c-225.67,0-409.82-19.63-520.95-35.33c-26.98-3.81-48.27-22.48-55.57-48.73
		c-7.31-26.27,1.29-53.29,22.44-70.51c200.7-163.36,415.11-303.47,637.25-416.44c298.52-151.81,612.9-255.52,934.4-308.26
		c166.68-27.34,337.48-41.26,507.67-41.36c0.03,0,0.06,0,0.08,0c43.68,0,84.46,21.62,109.08,57.83
		c24.54,36.09,47.97,73.61,69.62,111.51c15.52,27.16,30.47,55.12,44.44,83.09c28.42,56.9,12.21,125.9-38.53,164.05
		c-187.62,141.08-403.8,254.47-642.52,337.03c-200.13,69.21-418.35,117.6-648.6,143.81
		C1673.23,3598.18,1531.7,3604.51,1403.55,3604.51z M2928.87,2718.88c-0.02,0-0.04,0-0.06,0c-168.3,0.1-337.21,13.87-502.02,40.9
		c-560.07,91.87-1083.33,333.21-1555.22,717.3c-10.35,8.42-14.39,21.13-10.82,33.98c3.57,12.83,13.57,21.59,26.75,23.46
		c101.48,14.34,283.76,34.25,511.04,34.25c476.1,0,1149.93-87.35,1693.91-496.39c37.24-28,49.12-78.66,28.25-120.44
		c-13.68-27.39-28.32-54.76-43.52-81.36c-21.2-37.11-44.14-73.85-68.17-109.19v0C2990.91,2734.77,2960.95,2718.88,2928.87,2718.88z"
		/>
</g>
<g class="st3">
	<path class="st1" d="M3443.93,2807.95c58.84-9.86,112.94-22.15,161.85-35.42c-75.67,43.68-159.94,87.96-252.72,130.47
		c-71.18,32.62-139.75,60.69-204.87,84.94c-0.94-14.89-4.82-29.79-11.83-43.82c-13.3-26.63-27.91-54.1-43.98-82.22
		c-22.82-39.94-46.02-76.71-68.9-110.35c-11-16.18-25.74-29.02-42.64-37.66c37.69-10.9,75.82-22.4,114.37-34.53
		c142-44.67,275.12-93.28,399.21-143.81c-84.86,55.74-154.87,97.11-204.98,125.49c-31.15,17.65-106.6,59.62-132.67,74.08
		c105.31-21.68,221.39-51.19,345.14-91.66c111.59-36.51,212.7-76.47,302.84-116.61c-53.44,50.64-122.76,107.99-209.42,162.33
		c-107.05,67.13-207.8,109.14-288.32,135.95C3349.71,2821.55,3395.52,2816.06,3443.93,2807.95z"/>
</g>
<g class="st4">
	<path d="M863.14,3480.87c326.39-253.55,862.84-584.4,1579.41-685.28c180.81-25.46,350.45-33.08,505.65-29.65
		c37.92,0.84,72.91,20.47,93.52,52.31c22.1,34.15,44.46,71.44,66.37,111.88c12.67,23.39,24.36,46.32,35.16,68.69
		c0.95-19.1-2.86-38.62-11.9-56.71c-13.3-26.63-27.91-54.11-43.98-82.22c-22.82-39.94-46.02-76.71-68.9-110.35
		c-21.33-31.37-56.75-50.2-94.68-50.17c-155.24,0.1-324.66,11.57-504.85,41.13c-714.09,117.14-1242.89,460.1-1563.43,721
		c-20.99,17.08-23.13,44.58-11.44,64.48C842.2,3509.8,848.01,3492.62,863.14,3480.87z"/>
</g>
<g class="st3">
	<path class="st1" d="M3136.36,2944.12c-13.3-26.63-27.91-54.11-43.98-82.22c-22.82-39.94-46.02-76.71-68.9-110.35
		c-8.7-12.8-19.76-23.51-32.37-31.71c21.64,31.32,43.59,65.49,65.21,102.55c15.6,26.74,29.81,52.88,42.76,78.21
		c23.95,46.87,11.1,104.25-30.68,136.27c-763.06,584.78-1789.87,507.39-2116.05,464.36c-41.37-5.46-56.35-57.59-24.23-84.23
		c45.35-37.61,95.12-77,149.23-117.21c-80.47,56.21-152.81,111.6-216.84,163.72c-33.86,27.56-18.69,82.23,24.53,88.34
		c340.79,48.14,1414.13,138.92,2217.91-465.48C3146.97,3053.28,3160.96,2993.38,3136.36,2944.12z"/>
</g>
<g>
	<path class="st5" d="M2737.7,2873.58c-15.5-22.79-41.23-36.47-68.79-36.45c-112.78,0.07-235.87,8.41-366.77,29.88
		c-518.79,85.1-902.97,334.27-1135.85,523.81c-24.6,20.02-13.58,59.74,17.82,64.18c247.58,34.97,1027.37,100.92,1611.33-338.17
		c31.97-24.04,42.13-67.56,24.26-103.34c-9.66-19.35-20.28-39.31-31.95-59.74C2771.18,2924.73,2754.32,2898.02,2737.7,2873.58z"/>
</g>
<g>
	<path d="M1403.55,3604.51c-225.67,0-409.82-19.63-520.95-35.33c-26.98-3.81-48.27-22.48-55.57-48.73
		c-7.31-26.27,1.29-53.29,22.44-70.51c200.7-163.36,415.11-303.47,637.25-416.44c298.52-151.81,612.9-255.52,934.4-308.26
		c166.68-27.34,337.48-41.26,507.67-41.36c0.03,0,0.06,0,0.08,0c43.68,0,84.46,21.62,109.08,57.83
		c24.54,36.09,47.97,73.61,69.62,111.51c15.52,27.16,30.47,55.12,44.44,83.09c28.42,56.9,12.21,125.9-38.53,164.05
		c-187.62,141.08-403.8,254.47-642.52,337.03c-200.13,69.21-418.35,117.6-648.6,143.81
		C1673.23,3598.18,1531.7,3604.51,1403.55,3604.51z M2928.87,2718.88c-0.02,0-0.04,0-0.06,0c-168.3,0.1-337.21,13.87-502.02,40.9
		c-560.07,91.87-1083.33,333.21-1555.22,717.3c-10.35,8.42-14.39,21.13-10.82,33.98c3.57,12.83,13.57,21.59,26.75,23.46
		c101.48,14.34,283.76,34.25,511.04,34.25c476.1,0,1149.93-87.35,1693.91-496.39c37.24-28,49.12-78.66,28.25-120.44
		c-13.68-27.39-28.32-54.76-43.52-81.36c-21.2-37.11-44.14-73.85-68.17-109.19v0C2990.91,2734.77,2960.95,2718.88,2928.87,2718.88z"
		/>
</g>
<g class="st4">
	
		<ellipse transform="matrix(0.9727 -0.2319 0.2319 0.9727 -668.3908 565.7645)" cx="2071.97" cy="3125.52" rx="576.88" ry="149.93"/>
</g>
<g>
	<path d="M2718.89,2972.83c-69.27,26.44-138.89,51.99-208.78,76.79c-34.96,12.35-69.96,24.6-105.02,36.66
		c-35.07,12.04-70.21,23.88-105.4,35.56c-140.77,46.71-282.52,90.48-425,131.67c-142.53,41.02-285.78,79.49-429.71,115.14
		c-17.99,4.47-35.99,8.86-54.03,13.16c-9.01,2.17-18.05,4.23-27.07,6.36c-9.03,2.09-18.04,4.26-27.08,6.28l-27.14,6.04
		c-9.04,2.02-18.09,4.03-27.15,5.98l-27.2,5.79l-27.23,5.63l-13.62,2.81l-13.64,2.69c-9.1,1.77-18.19,3.59-27.3,5.31l-27.32,5.19
		l-27.38,4.93c-36.52,6.49-73.14,12.49-109.94,17.58c17.7-5.66,35.47-11.01,53.25-16.26l26.67-7.87l26.69-7.76l53.43-15.24
		l53.47-14.97l26.74-7.44l26.76-7.33c8.91-2.5,17.83-4.93,26.75-7.36l26.77-7.3l107.11-28.92c71.44-19.14,142.72-38.83,213.86-59
		c71.12-20.24,142.14-40.81,212.99-61.97c141.69-42.32,282.84-86.39,423.37-132.4l52.69-17.29l52.62-17.49
		c35.09-11.64,70.12-23.47,105.11-35.39c70.01-23.8,139.86-48.07,209.68-72.45l0.02-0.01c9.13-3.19,19.11,1.63,22.29,10.75
		C2732.3,2959.67,2727.7,2969.46,2718.89,2972.83z"/>
</g>
<g>
	<path class="st6" d="M2672.49,2023.79c-135.6-2.71-313.56,0.11-483.05,22.29l62.4,205.07c252.7,63.16,238.11,344.9,238.11,344.9
		c-1.26,51.31-10.57,122.53-46.82,197.19c-9.48,19.54-19.74,37.11-30.15,52.82l23.8,4.42c50.07,9.32,90.14,46.9,102.65,96.26
		c0.14,0.55,0.27,1.09,0.41,1.64c11.45,45.18-18.42,90.51-64.48,97.61c-35.14,5.41-73.19,9.72-113.84,12.14
		c-45.39,2.71-87.82,2.71-126.76,1.01c-44.09-1.93-80.44-35.17-86.16-78.93c-1.92-14.7-3.55-29.84-4.83-45.4
		c-6.65-81.25-3.69-122.22,2.34-178.96c2.02-18.95,5.33-44.8,11.04-75.4c-21.43,9.74-45.9,19.26-73.29,27.39
		c-55.77,16.55-106.17,22.15-146.38,23.28c-7.26,210.27-84.87,275.67-84.87,275.67l26.25,4.88c55.2,10.27,99.39,51.71,113.18,106.13
		c0.15,0.61,0.3,1.21,0.46,1.81c12.62,49.82-20.32,99.8-71.1,107.63c-38.75,5.97-80.7,10.71-125.53,13.39
		c-50.04,2.99-96.82,2.99-139.75,1.11c-48.62-2.13-88.71-38.78-95.02-87.04c-2.13-16.21-3.92-32.9-5.32-50.05
		c-11.66-142.49,7.92-264.91,31.83-356.43c0,0-288.27-17.5-186.26-612.27c0,0-148.54,45.75-350.97,166.35
		c-115.79,68.99-253.73-47.27-205.02-172.95c45.84-118.3,183.59-248.29,528.37-336.81c14.94-3.84,30.27-7.59,45.99-11.27
		c28.55-6.67,58.42-13.07,89.65-19.18c216.24-42.27,403.07-63.45,563.34-68.2c118.35-3.51,222.23,1.94,312.8,14.45
		c150.67,20.82,264.5,61.2,346.84,112.48C2827.06,1879.8,2784.04,2026.03,2672.49,2023.79z"/>
	<path d="M1715.2,3260.53c-20,0-39.97-0.43-59.84-1.3c-57.25-2.51-104.19-45.51-111.61-102.25c-2.2-16.73-4.02-33.86-5.41-50.89
		c-9.36-114.38-0.03-230,27.72-343.98c-27.03-6.78-76.15-26.16-119.64-81.04c-37.62-47.47-63-111.47-75.44-190.23
		c-14.28-90.42-11.46-200.91,8.37-328.78c-51.51,18.76-171.64,66.88-320.02,155.28c-30.63,18.25-64.77,25.9-98.71,22.1
		c-31.41-3.51-61.1-16.42-85.86-37.34c-24.72-20.89-42.38-47.95-51.05-78.25c-9.38-32.76-7.54-67.62,5.33-100.81
		c27.04-69.78,80.32-132.89,158.36-187.58c92.33-64.7,220.85-118.49,381.98-159.86c14.7-3.78,30.29-7.6,46.35-11.36
		c28.87-6.75,59.24-13.24,90.28-19.31c207.01-40.47,397.5-63.52,566.18-68.52c114.7-3.4,220.92,1.51,315.71,14.61
		c144.21,19.93,263.21,58.6,353.7,114.96c25.76,16.04,44.3,38.94,53.63,66.21c8.45,24.71,8.89,52.51,1.24,78.29
		c-7.63,25.7-23.1,48.68-43.56,64.7c-22.6,17.7-50.49,26.73-80.78,26.12c-118.32-2.36-292.19-0.75-459.91,19.56l53.52,175.87
		c56.63,15.76,104.53,43.58,142.48,82.79c31.98,33.03,56.85,74.04,73.92,121.89c28.22,79.13,25.56,149.74,25.3,155.29
		c-1.82,72.86-18.16,141.55-48.57,204.18c-5.36,11.05-11.2,21.97-17.47,32.66c55.93,10.98,100.97,53.58,114.99,108.89l0.41,1.63
		c6.68,26.36,1.9,54.48-13.1,77.15c-14.97,22.61-38.9,37.94-65.67,42.07c-38.22,5.88-77.07,10.03-115.47,12.31
		c-42.6,2.54-85.86,2.89-128.56,1.03c-52.71-2.31-95.92-41.9-102.75-94.15c-2-15.3-3.65-30.86-4.92-46.23
		c-6.88-84.02-3.52-126.71,2.38-182.24c1.6-14.98,3.55-30.04,5.85-45.05c-15.04,5.86-30.33,11.1-45.72,15.66
		c-43.63,12.95-88.82,20.77-134.58,23.32c-7.3,137.4-44.64,212.27-69.01,247.16c60.23,12.47,108.6,58.63,123.75,118.41l0.03,0.12
		c0.12,0.5,0.25,0.99,0.38,1.49l0.05,0.21c7.24,28.57,2.06,59.05-14.22,83.62c-16.23,24.51-42.17,41.13-71.18,45.6
		c-41.96,6.46-84.74,11.03-127.15,13.56C1769.82,3259.72,1742.5,3260.53,1715.2,3260.53z M1423.41,2110.84l-4.81,28.06
		c-23.3,135.86-27.75,252-13.24,345.2c11.32,72.69,34.08,131.27,67.64,174.12c22.1,28.21,48.25,48.98,77.73,61.74
		c22.07,9.55,37.88,10.78,38.04,10.79l21.51,1.06l-5.74,20.82c-30.32,116.06-40.86,234.01-31.32,350.58
		c1.34,16.47,3.1,33.02,5.23,49.2c5.21,39.87,38.2,70.07,78.43,71.84c45.8,2,92.21,1.64,137.94-1.1
		c41.33-2.47,83.02-6.92,123.91-13.22c19.57-3.02,36.38-13.79,47.33-30.33c10.82-16.35,14.28-36.62,9.49-55.62
		c-0.17-0.65-0.34-1.3-0.5-1.96c-12.09-47.6-51.1-84.17-99.4-93.15l-63.44-11.79l29.05-23.63c1.15-1.04,18.54-17.14,36.55-55.94
		c17.26-37.18,38.58-103.28,42.17-207l0.57-16.43l16.43-0.46c48.27-1.36,96.01-8.95,141.89-22.56c24.15-7.17,48.04-16.1,71.03-26.54
		l30.61-13.91l-6.17,33.05c-4.57,24.47-8.21,49.38-10.84,74.04c-5.86,55.16-8.94,94.51-2.3,175.68c1.22,14.82,2.81,29.81,4.74,44.56
		c4.62,35.36,33.88,62.15,69.57,63.71c41.5,1.81,83.54,1.48,124.95-1c37.32-2.22,75.07-6.25,112.22-11.97
		c17.29-2.67,32.14-12.18,41.82-26.8c9.72-14.68,12.69-32.16,8.36-49.22l-0.4-1.6c-10.8-42.63-45.7-75.35-88.9-83.39l-49.79-9.25
		l14.61-22.04c10.78-16.27,20.54-33.36,28.99-50.79c28.24-58.16,43.4-122.08,45.07-189.98l0.02-0.48
		c0.03-0.66,3.06-68.8-23.68-143.04c-35.11-97.48-102.81-159.38-201.2-183.97l-9.61-2.4l-71.3-234.32l20.49-2.68
		c176.1-23.04,361.31-24.92,485.67-22.43h0c0.73,0.01,1.47,0.02,2.19,0.02c50.41,0,78.82-35.25,87.89-65.81
		c9.25-31.16,4.37-77.31-39.83-104.83c-86.29-53.74-200.68-90.75-339.98-110c-92.87-12.83-197.13-17.64-309.89-14.29
		c-166.78,4.94-355.36,27.78-560.5,67.88c-30.62,5.99-60.57,12.4-89.03,19.05c-15.81,3.7-31.16,7.46-45.62,11.18
		c-157.04,40.32-281.73,92.34-370.6,154.62c-72.26,50.64-121.32,108.36-145.81,171.56c-23.58,60.83,2.97,112.05,35.68,139.69
		c32.79,27.71,87.86,45.39,144.06,11.91c201.91-120.29,348.63-166.15,354.78-168.04L1423.41,2110.84z"/>
</g>
<g>
	<g class="st3">
		<path class="st1" d="M869.36,2171.35c45.84-118.3,183.59-248.29,528.37-336.81c14.94-3.84,30.27-7.59,45.99-11.27
			c28.55-6.67,58.42-13.07,89.65-19.18c216.24-42.27,403.07-63.45,563.34-68.2c118.35-3.51,222.23,1.94,312.8,14.45
			c150.67,20.82,264.5,61.2,346.84,112.48c9.18,5.72,17.06,12.27,23.72,19.41c-6.97-23.7-22.43-45.67-47.72-61.41
			c-82.34-51.28-196.17-91.66-346.84-112.48c-90.57-12.51-194.45-17.96-312.8-14.45c-160.27,4.75-347.1,25.93-563.34,68.2
			c-31.23,6.11-61.1,12.51-89.65,19.18c-15.72,3.68-31.05,7.43-45.99,11.27c-344.78,88.52-482.53,218.51-528.37,336.81
			c-20.48,52.84-7.96,104.01,22.03,140.46C856.7,2240.19,855.88,2206.13,869.36,2171.35z"/>
	</g>
</g>
<g class="st3">
	<g>
		<path class="st1" d="M1921.4,3227.24c-38.75,5.97-80.7,10.71-125.53,13.39c-25.59,1.53-50.32,2.27-74.13,2.39
			c9.26-0.36,18.63-0.82,28.13-1.39c44.83-2.68,86.78-7.42,125.53-13.39c50.78-7.83,83.72-57.81,71.1-107.63
			c-0.16-0.6-0.31-1.2-0.46-1.81c-13.79-54.42-57.98-95.86-113.18-106.13l-26.25-4.88c9.41-11.22,25.08-31.35,39.71-58.98
			c70.17-132.53,62.61-335.99-47.87-413.15c-14.94-10.44-39.26-23.79-76-30c19.7,4.34,138.7,32.5,189,139
			c14.67,31.06,19.79,60.95,21.12,84.83c0.42,5.63,1.88,11.11,4.28,16.38c-10.28,198.59-84.24,260.92-84.24,260.92l26.25,4.88
			c55.2,10.27,99.39,51.71,113.18,106.13c0.15,0.61,0.3,1.21,0.46,1.81C2005.12,3169.43,1972.18,3219.41,1921.4,3227.24z"/>
	</g>
	<g>
		<path class="st1" d="M2475.36,3045.99c-35.14,5.41-73.19,9.72-113.84,12.14c-23.99,1.43-47.15,2.1-69.41,2.17
			c7.71-0.31,15.51-0.7,23.41-1.17c40.65-2.42,78.7-6.73,113.84-12.14c46.06-7.1,75.93-52.43,64.48-97.61
			c-0.14-0.55-0.27-1.09-0.41-1.64c-12.51-49.36-52.58-86.94-102.65-96.26l-23.8-4.42c10.41-15.71,20.67-33.28,30.15-52.82
			c36.25-74.66,45.56-145.88,46.82-197.19c0,0,12.6-243.31-188.42-328.4c0.81,0.01,1.61,0.01,2.42,0.01
			c14.12,0,27.99-0.63,41.56-1.85c203.12,84.3,190.44,329.24,190.44,329.24c-1.26,51.31-10.57,122.53-46.82,197.19
			c-9.48,19.54-19.74,37.11-30.15,52.82l23.8,4.42c50.07,9.32,90.14,46.9,102.65,96.26c0.14,0.55,0.27,1.09,0.41,1.64
			C2551.29,2993.56,2521.42,3038.89,2475.36,3045.99z"/>
	</g>
</g>
<g>
	<path d="M1715.2,3260.53c-20,0-39.97-0.43-59.84-1.3c-57.25-2.51-104.19-45.51-111.61-102.25c-2.2-16.73-4.02-33.86-5.41-50.89
		c-9.36-114.38-0.03-230,27.72-343.98c-27.03-6.78-76.15-26.16-119.64-81.04c-37.62-47.47-63-111.47-75.44-190.23
		c-14.28-90.42-11.46-200.91,8.37-328.78c-51.51,18.76-171.64,66.88-320.02,155.28c-30.63,18.25-64.77,25.9-98.71,22.1
		c-31.41-3.51-61.1-16.42-85.86-37.34c-24.72-20.89-42.38-47.95-51.05-78.25c-9.38-32.76-7.54-67.62,5.33-100.81
		c27.04-69.78,80.32-132.89,158.36-187.58c92.33-64.7,220.85-118.49,381.98-159.86c14.7-3.78,30.29-7.6,46.35-11.36
		c28.87-6.75,59.24-13.24,90.28-19.31c207.01-40.47,397.5-63.52,566.18-68.52c114.7-3.4,220.92,1.51,315.71,14.61
		c144.21,19.93,263.21,58.6,353.7,114.96c25.76,16.04,44.3,38.94,53.63,66.21c8.45,24.71,8.89,52.51,1.24,78.29
		c-7.63,25.7-23.1,48.68-43.56,64.7c-22.6,17.7-50.49,26.73-80.78,26.12c-118.32-2.36-292.19-0.75-459.91,19.56l53.52,175.87
		c56.63,15.76,104.53,43.58,142.48,82.79c31.98,33.03,56.85,74.04,73.92,121.89c28.22,79.13,25.56,149.74,25.3,155.29
		c-1.82,72.86-18.16,141.55-48.57,204.18c-5.36,11.05-11.2,21.97-17.47,32.66c55.93,10.98,100.97,53.58,114.99,108.89l0.41,1.63
		c6.68,26.36,1.9,54.48-13.1,77.15c-14.97,22.61-38.9,37.94-65.67,42.07c-38.22,5.88-77.07,10.03-115.47,12.31
		c-42.6,2.54-85.86,2.89-128.56,1.03c-52.71-2.31-95.92-41.9-102.75-94.15c-2-15.3-3.65-30.86-4.92-46.23
		c-6.88-84.02-3.52-126.71,2.38-182.24c1.6-14.98,3.55-30.04,5.85-45.05c-15.04,5.86-30.33,11.1-45.72,15.66
		c-43.63,12.95-88.82,20.77-134.58,23.32c-7.3,137.4-44.64,212.27-69.01,247.16c60.23,12.47,108.6,58.63,123.75,118.41l0.03,0.12
		c0.12,0.5,0.25,0.99,0.38,1.49l0.05,0.21c7.24,28.57,2.06,59.05-14.22,83.62c-16.23,24.51-42.17,41.13-71.18,45.6
		c-41.96,6.46-84.74,11.03-127.15,13.56C1769.82,3259.72,1742.5,3260.53,1715.2,3260.53z M1423.41,2110.84l-4.81,28.06
		c-23.3,135.86-27.75,252-13.24,345.2c11.32,72.69,34.08,131.27,67.64,174.12c22.1,28.21,48.25,48.98,77.73,61.74
		c22.07,9.55,37.88,10.78,38.04,10.79l21.51,1.06l-5.74,20.82c-30.32,116.06-40.86,234.01-31.32,350.58
		c1.34,16.47,3.1,33.02,5.23,49.2c5.21,39.87,38.2,70.07,78.43,71.84c45.8,2,92.21,1.64,137.94-1.1
		c41.33-2.47,83.02-6.92,123.91-13.22c19.57-3.02,36.38-13.79,47.33-30.33c10.82-16.35,14.28-36.62,9.49-55.62
		c-0.17-0.65-0.34-1.3-0.5-1.96c-12.09-47.6-51.1-84.17-99.4-93.15l-63.44-11.79l29.05-23.63c1.15-1.04,18.54-17.14,36.55-55.94
		c17.26-37.18,38.58-103.28,42.17-207l0.57-16.43l16.43-0.46c48.27-1.36,96.01-8.95,141.89-22.56c24.15-7.17,48.04-16.1,71.03-26.54
		l30.61-13.91l-6.17,33.05c-4.57,24.47-8.21,49.38-10.84,74.04c-5.86,55.16-8.94,94.51-2.3,175.68c1.22,14.82,2.81,29.81,4.74,44.56
		c4.62,35.36,33.88,62.15,69.57,63.71c41.5,1.81,83.54,1.48,124.95-1c37.32-2.22,75.07-6.25,112.22-11.97
		c17.29-2.67,32.14-12.18,41.82-26.8c9.72-14.68,12.69-32.16,8.36-49.22l-0.4-1.6c-10.8-42.63-45.7-75.35-88.9-83.39l-49.79-9.25
		l14.61-22.04c10.78-16.27,20.54-33.36,28.99-50.79c28.24-58.16,43.4-122.08,45.07-189.98l0.02-0.48
		c0.03-0.66,3.06-68.8-23.68-143.04c-35.11-97.48-102.81-159.38-201.2-183.97l-9.61-2.4l-71.3-234.32l20.49-2.68
		c176.1-23.04,361.31-24.92,485.67-22.43h0c0.73,0.01,1.47,0.02,2.19,0.02c50.41,0,78.82-35.25,87.89-65.81
		c9.25-31.16,4.37-77.31-39.83-104.83c-86.29-53.74-200.68-90.75-339.98-110c-92.87-12.83-197.13-17.64-309.89-14.29
		c-166.78,4.94-355.36,27.78-560.5,67.88c-30.62,5.99-60.57,12.4-89.03,19.05c-15.81,3.7-31.16,7.46-45.62,11.18
		c-157.04,40.32-281.73,92.34-370.6,154.62c-72.26,50.64-121.32,108.36-145.81,171.56c-23.58,60.83,2.97,112.05,35.68,139.69
		c32.79,27.71,87.86,45.39,144.06,11.91c201.91-120.29,348.63-166.15,354.78-168.04L1423.41,2110.84z"/>
</g>
<g>
	<g class="st4">
		<path d="M2753.42,1837.51c-0.78,56.02-43.42,110.66-111.94,109.28c-135.6-2.72-313.56,0.11-483.04,22.29l62.4,205.07
			c2.78,0.7,5.52,1.43,8.23,2.17l-39.63-130.24c169.49-22.18,347.45-25.01,483.04-22.29
			C2774.61,2025.84,2819.28,1903.46,2753.42,1837.51z"/>
	</g>
</g>
<g class="st4">
	<g>
		<path d="M1872.87,3208.63c-90.73,5.41-120.39,3.97-139.75,1.11c-45.32-6.69-67.98-10.03-85.67-27.08
			c-24.34-23.47-25.15-56.25-25-149c0.15-92.1,0.23-138.15,1-150c4.77-72.95,12.16-169.34,24-285
			c-55.7,40.6-91.11,43.15-114.23,34.46c-111.73-41.99-72.37-397.53-54.88-529.18c0,0-48.06,14.81-126.73,49.76
			c31.83-12.24,49.73-17.76,49.73-17.76c-102.01,594.77,186.26,612.27,186.26,612.27c-23.9,91.52-43.49,213.95-31.83,356.44
			c1.4,17.15,3.2,33.84,5.32,50.05c6.31,48.25,46.4,84.91,95.02,87.04c42.93,1.88,89.71,1.88,139.75-1.11
			c44.83-2.68,86.78-7.42,125.53-13.39c21.02-3.24,38.97-13.7,51.91-28.38C1941.71,3203.13,1908.19,3206.52,1872.87,3208.63z"/>
	</g>
	<g>
		<path d="M922.36,2097.35c32.63-84.21,111.85-174.34,279.16-251.23c-220.79,83.08-318.88,187.02-356.16,283.23
			c-48.7,125.68,89.23,241.94,205.02,172.95c7.14-4.25,14.21-8.41,21.21-12.48C972.62,2302.27,881.36,2203.15,922.36,2097.35z"/>
	</g>
	<g>
		<path d="M2438.52,3026.13c-82.56,4.93-108.25,3.9-126.76,1.01c-38.81-6.06-69.31-10.82-89.31-35.48c-11.67-14.38-14.6-34.12-20-73
			c-5.45-39.27-6.11-71.83-6-110c0.13-45.53,1.3-76.29,2-100c1.06-36.03,2-88.26,1-153c-7.07,14.9-23.09,43.18-55,64
			c0,0-28.95,18.89-71,24c-102.25,12.43-234.03-83.83-245-92c25.95,19.44,70.67,59.16,95,124c7.45,19.85,11.66,38.54,14,55
			c40.05-0.93,90.52-6.3,146.41-22.82c27.43-8.11,51.9-17.65,73.28-27.39c-5.7,30.61-9.02,56.45-11.03,75.4
			c-6.03,56.74-8.99,97.72-2.34,178.96c1.27,15.56,2.9,30.7,4.83,45.4c5.72,43.76,42.08,77,86.16,78.92
			c38.94,1.7,81.37,1.7,126.76-1.01c40.66-2.43,78.71-6.73,113.85-12.15c20.13-3.1,37.17-13.51,49.02-28.02
			C2497.27,3021.51,2468.61,3024.34,2438.52,3026.13z"/>
	</g>
</g>
<g>
	<path d="M1715.2,3260.53c-20,0-39.97-0.43-59.84-1.3c-57.25-2.51-104.19-45.51-111.61-102.25c-2.2-16.73-4.02-33.86-5.41-50.89
		c-9.36-114.38-0.03-230,27.72-343.98c-27.03-6.78-76.15-26.16-119.64-81.04c-37.62-47.47-63-111.47-75.44-190.23
		c-14.28-90.42-11.46-200.91,8.37-328.78c-51.51,18.76-171.64,66.88-320.02,155.28c-30.63,18.25-64.77,25.9-98.71,22.1
		c-31.41-3.51-61.1-16.42-85.86-37.34c-24.72-20.89-42.38-47.95-51.05-78.25c-9.38-32.76-7.54-67.62,5.33-100.81
		c27.04-69.78,80.32-132.89,158.36-187.58c92.33-64.7,220.85-118.49,381.98-159.86c14.7-3.78,30.29-7.6,46.35-11.36
		c28.87-6.75,59.24-13.24,90.28-19.31c207.01-40.47,397.5-63.52,566.18-68.52c114.7-3.4,220.92,1.51,315.71,14.61
		c144.21,19.93,263.21,58.6,353.7,114.96c25.76,16.04,44.3,38.94,53.63,66.21c8.45,24.71,8.89,52.51,1.24,78.29
		c-7.63,25.7-23.1,48.68-43.56,64.7c-22.6,17.7-50.49,26.73-80.78,26.12c-118.32-2.36-292.19-0.75-459.91,19.56l53.52,175.87
		c56.63,15.76,104.53,43.58,142.48,82.79c31.98,33.03,56.85,74.04,73.92,121.89c28.22,79.13,25.56,149.74,25.3,155.29
		c-1.82,72.86-18.16,141.55-48.57,204.18c-5.36,11.05-11.2,21.97-17.47,32.66c55.93,10.98,100.97,53.58,114.99,108.89l0.41,1.63
		c6.68,26.36,1.9,54.48-13.1,77.15c-14.97,22.61-38.9,37.94-65.67,42.07c-38.22,5.88-77.07,10.03-115.47,12.31
		c-42.6,2.54-85.86,2.89-128.56,1.03c-52.71-2.31-95.92-41.9-102.75-94.15c-2-15.3-3.65-30.86-4.92-46.23
		c-6.88-84.02-3.52-126.71,2.38-182.24c1.6-14.98,3.55-30.04,5.85-45.05c-15.04,5.86-30.33,11.1-45.72,15.66
		c-43.63,12.95-88.82,20.77-134.58,23.32c-7.3,137.4-44.64,212.27-69.01,247.16c60.23,12.47,108.6,58.63,123.75,118.41l0.03,0.12
		c0.12,0.5,0.25,0.99,0.38,1.49l0.05,0.21c7.24,28.57,2.06,59.05-14.22,83.62c-16.23,24.51-42.17,41.13-71.18,45.6
		c-41.96,6.46-84.74,11.03-127.15,13.56C1769.82,3259.72,1742.5,3260.53,1715.2,3260.53z M1423.41,2110.84l-4.81,28.06
		c-23.3,135.86-27.75,252-13.24,345.2c11.32,72.69,34.08,131.27,67.64,174.12c22.1,28.21,48.25,48.98,77.73,61.74
		c22.07,9.55,37.88,10.78,38.04,10.79l21.51,1.06l-5.74,20.82c-30.32,116.06-40.86,234.01-31.32,350.58
		c1.34,16.47,3.1,33.02,5.23,49.2c5.21,39.87,38.2,70.07,78.43,71.84c45.8,2,92.21,1.64,137.94-1.1
		c41.33-2.47,83.02-6.92,123.91-13.22c19.57-3.02,36.38-13.79,47.33-30.33c10.82-16.35,14.28-36.62,9.49-55.62
		c-0.17-0.65-0.34-1.3-0.5-1.96c-12.09-47.6-51.1-84.17-99.4-93.15l-63.44-11.79l29.05-23.63c1.15-1.04,18.54-17.14,36.55-55.94
		c17.26-37.18,38.58-103.28,42.17-207l0.57-16.43l16.43-0.46c48.27-1.36,96.01-8.95,141.89-22.56c24.15-7.17,48.04-16.1,71.03-26.54
		l30.61-13.91l-6.17,33.05c-4.57,24.47-8.21,49.38-10.84,74.04c-5.86,55.16-8.94,94.51-2.3,175.68c1.22,14.82,2.81,29.81,4.74,44.56
		c4.62,35.36,33.88,62.15,69.57,63.71c41.5,1.81,83.54,1.48,124.95-1c37.32-2.22,75.07-6.25,112.22-11.97
		c17.29-2.67,32.14-12.18,41.82-26.8c9.72-14.68,12.69-32.16,8.36-49.22l-0.4-1.6c-10.8-42.63-45.7-75.35-88.9-83.39l-49.79-9.25
		l14.61-22.04c10.78-16.27,20.54-33.36,28.99-50.79c28.24-58.16,43.4-122.08,45.07-189.98l0.02-0.48
		c0.03-0.66,3.06-68.8-23.68-143.04c-35.11-97.48-102.81-159.38-201.2-183.97l-9.61-2.4l-71.3-234.32l20.49-2.68
		c176.1-23.04,361.31-24.92,485.67-22.43h0c0.73,0.01,1.47,0.02,2.19,0.02c50.41,0,78.82-35.25,87.89-65.81
		c9.25-31.16,4.37-77.31-39.83-104.83c-86.29-53.74-200.68-90.75-339.98-110c-92.87-12.83-197.13-17.64-309.89-14.29
		c-166.78,4.94-355.36,27.78-560.5,67.88c-30.62,5.99-60.57,12.4-89.03,19.05c-15.81,3.7-31.16,7.46-45.62,11.18
		c-157.04,40.32-281.73,92.34-370.6,154.62c-72.26,50.64-121.32,108.36-145.81,171.56c-23.58,60.83,2.97,112.05,35.68,139.69
		c32.79,27.71,87.86,45.39,144.06,11.91c201.91-120.29,348.63-166.15,354.78-168.04L1423.41,2110.84z"/>
</g>
<g>
	<path d="M1902.9,3037.19c-13.92-5.35-28.44-9.51-43.39-11.78c-7.47-1.21-15.03-1.82-22.65-2.1l-2.86-0.1l-2.86,0.01
		c-1.91,0.02-3.83-0.06-5.74,0.06l-5.76,0.23l-5.75,0.47c-0.96,0.08-1.93,0.14-2.89,0.24l-2.87,0.37c-1.91,0.25-3.85,0.45-5.77,0.75
		c-3.81,0.68-7.67,1.27-11.48,2.16c-7.64,1.65-15.28,3.68-22.83,6.23c-15.14,5.03-29.99,11.76-44.72,19.92
		c2.55-3.37,5.33-6.54,8.22-9.65c2.95-3.03,5.96-6.07,9.17-8.87c6.39-5.66,13.31-10.81,20.63-15.42c1.85-1.12,3.68-2.29,5.57-3.36
		l5.72-3.13c1.93-1.01,3.91-1.91,5.87-2.87c0.99-0.46,1.96-0.98,2.97-1.39l3.02-1.27c2.03-0.82,4.02-1.76,6.1-2.46l6.21-2.22
		c2.08-0.71,4.2-1.3,6.31-1.96l3.18-0.95c1.07-0.29,2.14-0.53,3.21-0.8c17.13-4.43,35.09-6.21,53.01-5.43
		c17.91,0.88,35.81,4.31,52.77,10.61L1902.9,3037.19z"/>
</g>
<g>
	<path d="M2458.01,2875.15c-12.48-4.8-25.5-8.61-38.92-10.74c-6.7-1.14-13.5-1.73-20.35-2.04c-6.84-0.24-13.77-0.24-20.68,0.41
		c-0.87,0.07-1.74,0.11-2.6,0.19l-2.59,0.31c-1.73,0.21-3.47,0.37-5.2,0.62c-3.44,0.58-6.93,1.08-10.37,1.84
		c-6.91,1.41-13.83,3.16-20.69,5.38c-13.75,4.37-27.3,10.26-40.87,17.41c4.53-6.21,9.82-11.88,15.55-17.14
		c5.75-5.25,11.99-10.02,18.62-14.29c1.67-1.04,3.33-2.13,5.04-3.11l5.19-2.91c1.75-0.94,3.55-1.78,5.33-2.67
		c0.9-0.43,1.78-0.91,2.7-1.3l2.75-1.18c7.32-3.23,14.97-5.78,22.77-7.83c15.62-4.16,32.03-5.89,48.42-5.25
		c16.38,0.73,32.77,3.81,48.29,9.57L2458.01,2875.15z"/>
</g>
<g>
	<path d="M1710.3,2502.92c8,0.55,16,1.61,23.93,3.04c7.94,1.4,15.82,3.21,23.64,5.31c1.96,0.51,3.92,1.03,5.85,1.63
		c1.94,0.59,3.9,1.13,5.82,1.77l5.8,1.87l5.76,2.01c7.65,2.77,15.22,5.82,22.65,9.24c3.76,1.62,7.39,3.51,11.07,5.33
		c1.82,0.94,3.62,1.93,5.43,2.89c1.81,0.97,3.63,1.93,5.39,2.98l5.34,3.09c1.79,1.02,3.51,2.16,5.26,3.24
		c1.73,1.12,3.51,2.18,5.2,3.35l5.11,3.51c13.6,9.42,26.36,20.24,38.01,32.27c11.6,12.07,22.06,25.38,31.04,39.69
		c8.88,14.36,16.51,29.59,22.25,45.58l2.12,6c0.68,2.01,1.28,4.05,1.92,6.07c1.32,4.04,2.34,8.16,3.47,12.26
		c2.03,8.24,3.78,16.57,5,24.98c2.54,16.8,3.4,33.85,2.67,50.8l-34.95-1.95c0.53-7.45,0.72-14.91,0.65-22.36
		c-0.11-7.46-0.55-14.9-1.26-22.33c-0.69-7.43-1.91-14.78-3.24-22.13c-0.79-3.64-1.45-7.32-2.42-10.92
		c-0.46-1.81-0.87-3.63-1.37-5.43l-1.56-5.38c-4.14-14.35-9.92-28.25-16.94-41.52c-6.98-13.3-15.38-25.91-25.02-37.63
		c-9.59-11.75-20.36-22.69-32.21-32.5l-4.46-3.67c-1.48-1.23-3.05-2.35-4.57-3.54c-1.54-1.17-3.03-2.4-4.6-3.52l-4.7-3.4
		c-1.55-1.16-3.17-2.22-4.78-3.31c-1.61-1.08-3.21-2.18-4.84-3.24l-4.93-3.11c-1.63-1.07-3.29-2.07-4.97-3.08
		c-6.64-4.1-13.53-7.79-20.49-11.43c-6.94-3.67-14.11-6.92-21.32-10.14C1740.59,2512.96,1725.69,2507.41,1710.3,2502.92z"/>
</g>
<g>
	<path d="M2131.14,2710.24c0.17-0.99,0.34-1.92,0.53-2.84l0.55-2.77l1.23-5.48c0.85-3.64,1.77-7.25,2.76-10.85
		c1.95-7.2,4.12-14.32,6.47-21.4c4.67-14.16,10.08-28.09,16.02-41.82c6.01-13.71,12.55-27.23,19.8-40.38
		c1.86-3.27,3.75-6.53,5.67-9.76c1.87-3.25,3.91-6.43,5.98-9.58c4.05-6.33,8.48-12.47,13.13-18.38l-9.47,43.49l-8.97,42.95
		c-2.93,14.29-5.87,28.53-9.08,42.68c-1.59,7.08-3.24,14.14-4.97,21.17c-0.88,3.51-1.75,7.02-2.69,10.51l-1.4,5.22l-0.74,2.58
		c-0.24,0.87-0.49,1.72-0.74,2.52L2131.14,2710.24z"/>
</g>
<g>
	<path d="M1566.8,2749.5c0.24-0.98,0.49-1.89,0.75-2.79l0.77-2.72l1.65-5.37c1.13-3.56,2.33-7.1,3.58-10.6
		c2.5-7.02,5.21-13.96,8.1-20.83c5.75-13.76,12.21-27.23,19.2-40.46c7.05-13.21,14.61-26.18,22.86-38.73
		c2.11-3.12,4.24-6.22,6.4-9.3c2.11-3.09,4.39-6.11,6.7-9.09c4.52-6,9.42-11.78,14.51-17.31l-12.79,42.63l-12.25,42.13
		c-4.02,14.02-8.06,27.99-12.35,41.86c-2.13,6.94-4.32,13.85-6.58,20.73c-1.15,3.44-2.28,6.87-3.49,10.27l-1.8,5.1l-0.93,2.52
		c-0.31,0.84-0.62,1.68-0.93,2.46L1566.8,2749.5z"/>
</g>
<g>
	<path d="M2263.08,2232.35c1,2.3,1.77,4.44,2.52,6.68c0.74,2.22,1.41,4.45,2.02,6.69c1.24,4.49,2.26,9.03,3.12,13.6
		c1.75,9.15,2.78,18.46,3.33,27.85c0.5,9.4,0.52,18.88-0.14,28.39c-0.77,9.52-2.1,19.08-4.93,28.42c-4.23-8.81-7.9-17.31-11.5-25.78
		c-3.61-8.46-7.04-16.86-10.31-25.27c-3.31-8.4-6.44-16.81-9.17-25.31c-1.38-4.24-2.67-8.51-3.83-12.8
		c-0.57-2.15-1.13-4.3-1.62-6.46c-0.5-2.14-0.97-4.37-1.28-6.43L2263.08,2232.35z"/>
</g>
<g>
	<path d="M2176.44,2057.78c-0.94-1.86-1.83-3.96-2.66-5.99c-0.84-2.05-1.63-4.13-2.4-6.22c-1.53-4.18-2.93-8.4-4.25-12.67
		c-2.67-8.52-4.94-17.19-7.08-25.97c-2.17-8.76-4.2-17.6-6.13-26.59c-1.94-8.99-3.84-18.05-5.45-27.69
		c7.7,6.01,14.29,13.06,20.4,20.39c6.02,7.39,11.47,15.15,16.47,23.12c4.96,7.99,9.48,16.2,13.32,24.68
		c1.94,4.23,3.72,8.53,5.29,12.92c0.79,2.19,1.53,4.4,2.2,6.64c0.68,2.26,1.28,4.46,1.79,6.91L2176.44,2057.78z"/>
</g>
<g>
	<path d="M1403.14,2118.54c2.24-1.13,4.33-2.03,6.52-2.91c2.17-0.87,4.36-1.67,6.56-2.41c4.41-1.5,8.88-2.79,13.4-3.91
		c9.03-2.28,18.27-3.86,27.61-4.96c9.35-1.06,18.82-1.63,28.34-1.52c9.55,0.21,19.17,0.97,28.66,3.25
		c-8.55,4.75-16.82,8.9-25.06,12.99c-8.23,4.1-16.42,8.02-24.62,11.78c-8.2,3.79-16.4,7.42-24.72,10.64
		c-4.16,1.63-8.34,3.17-12.56,4.57c-2.11,0.7-4.22,1.38-6.36,2c-2.11,0.62-4.3,1.23-6.34,1.65L1403.14,2118.54z"/>
</g>
<g>
	<path class="st6" d="M1233.69,1456.52c94.8,239.54,270.97,446.54,491.17,468.06c78.06,7.62,155.2-8.69,228.48-42.59
		c133.75-61.84,254.63-182.28,344.67-322.59c76.96-119.92,131.38-254.34,152.07-379.11c2.64-15.91,4.73-31.66,6.25-47.21
		c35.01-358.31-226.71-677.13-584.56-712.1c-357.85-34.96-676.34,227.18-711.34,585.48
		C1146.97,1144.29,1174.43,1306.76,1233.69,1456.52z"/>
	<path d="M1762.96,1943.93c-13.32,0-26.58-0.64-39.8-1.93c-55.52-5.42-110.32-22.42-162.86-50.51
		c-49.03-26.21-96.3-62.17-140.49-106.87c-81.92-82.87-151.9-194.09-202.39-321.65l0,0c-30.16-76.23-52-154.65-64.9-233.1
		c-13.11-79.73-16.31-155.46-9.5-225.1c8.78-89.92,34.9-175.45,77.63-254.2c41.26-76.06,96.2-142.62,163.27-197.82
		c67.08-55.21,142.93-96.29,225.44-122.11c85.44-26.73,174.3-35.84,264.12-27.06c89.82,8.78,175.24,34.91,253.89,77.67
		c75.96,41.3,142.42,96.29,197.54,163.44c55.12,67.15,96.13,143.08,121.89,225.69c26.67,85.53,35.74,174.5,26.95,264.42
		c-1.55,15.84-3.71,32.11-6.41,48.37c-20.87,125.89-75.78,262.87-154.61,385.69c-97.81,152.43-222.83,269.28-352.05,329.03
		C1894.49,1928.5,1828.15,1943.93,1762.96,1943.93z M1249.96,1450.08c105.82,267.39,283.99,438.26,476.6,457.08
		c71.6,6.99,145.43-6.82,219.43-41.06c123.25-56.99,243.03-169.27,337.29-316.16c76.31-118.91,129.42-251.21,149.53-372.52
		c2.57-15.5,4.63-30.99,6.1-46.05c16.48-168.64-33.62-333.6-141.07-464.49C2190.41,536,2038.49,454.85,1870.07,438.39
		c-20.8-2.03-41.51-3.03-61.99-3.03c-321.9,0-598.26,245.49-630.23,572.8C1164.92,1140.52,1191.2,1301.59,1249.96,1450.08
		L1249.96,1450.08z"/>
</g>
<g class="st3">
	<path class="st1" d="M1152.17,1002.05c59.25-331.59,358.07-565.94,683.26-546.28c342.6,20.71,619.16,317.6,613.26,672.96
		c0,0,43.07-545.13-486.49-691.21C1432.63,291.45,1217.33,759.57,1152.17,1002.05z"/>
</g>
<g class="st4">
	<path d="M2289.82,1695.79c-80.43,102.02-177.49,186.66-282.47,235.2c-73.28,33.9-150.43,50.21-228.49,42.59
		c-110.3-10.78-209.55-68.09-293.06-152.73c71.2,57.42,151.66,95.19,239.06,103.73c78.06,7.62,155.21-8.69,228.49-42.59
		c89.81-41.53,173.82-109.47,246.59-192.12C2227.54,1690.94,2257.72,1692.8,2289.82,1695.79z"/>
</g>
<g>
	<path d="M1762.78,1943.92c-13.28,0-26.49-0.64-39.62-1.92c-55.52-5.42-110.31-22.42-162.86-50.51
		c-49.03-26.21-96.3-62.17-140.49-106.87c-81.92-82.87-151.91-194.09-202.39-321.65c-30.17-76.22-52-154.65-64.9-233.1
		c-13.11-79.73-16.31-155.47-9.51-225.1c8.79-89.93,34.9-175.45,77.63-254.2c41.26-76.06,96.2-142.62,163.27-197.82
		c67.08-55.21,142.93-96.29,225.44-122.11c85.44-26.73,174.3-35.84,264.12-27.06c89.82,8.78,175.24,34.91,253.89,77.67
		c75.96,41.3,142.42,96.29,197.54,163.44c55.12,67.15,96.13,143.08,121.89,225.69c26.67,85.53,35.74,174.5,26.96,264.42
		c-6.79,69.45-24.51,142.94-52.68,218.42c-27.72,74.27-64.17,146.82-108.33,215.63c-74.21,115.65-164.47,211.48-261.02,277.14
		c-52.08,35.41-105.49,61.63-158.74,77.91C1849.39,1937.21,1805.74,1943.92,1762.78,1943.92z M1808.07,435.37
		c-321.87,0-598.24,245.5-630.22,572.79c-12.93,132.35,13.36,293.43,72.12,441.92c81.7,206.44,249.8,434.92,476.6,457.08
		c227.21,22.2,436.57-169.97,556.73-357.22c86.01-134.02,142.73-286.58,155.63-418.56c16.48-168.65-33.62-333.61-141.07-464.5
		C2190.41,536,2038.49,454.85,1870.07,438.4C1849.26,436.36,1828.57,435.37,1808.07,435.37z"/>
</g>
<g>
	<path d="M1634.72,1453.24c0.19,10.74-8.18,19.6-18.68,19.78c-10.5,0.18-19.17-8.38-19.35-19.12c-0.19-10.74,8.18-19.6,18.68-19.78
		C1625.87,1433.94,1634.53,1442.5,1634.72,1453.24z"/>
</g>
<g>
	<path d="M1693.5,1452.22c0.19,10.74-8.18,19.6-18.68,19.78c-10.5,0.18-19.17-8.38-19.35-19.12c-0.19-10.74,8.18-19.6,18.68-19.78
		C1684.65,1432.92,1693.31,1441.48,1693.5,1452.22z"/>
</g>
<g>
	<path d="M1511.77,1453.2c22.37-1.69,40.06-19.65,41.53-42.03c3.74-57.1-2.99-168.5-94.54-253.75
		c-71.15-66.25-169.34-94.19-263.74-76.81c-21.38,3.94-37.06,22.32-37.26,44.06c-0.51,53.92,11.02,156.81,94.76,239.25
		C1342.27,1452.27,1454.46,1457.54,1511.77,1453.2z"/>
	<path d="M1483.41,1471.76c-64.91,0-162.4-15.87-243.18-95.38c-88.25-86.87-100.52-195.1-99.98-251.89
		c0.28-29.95,21.98-55.65,51.59-61.1c49.14-9.05,100.54-6.47,148.63,7.45c48.4,14.01,93.43,39.52,130.21,73.77
		c96.46,89.82,104.11,206.28,100.08,267.71c-2.03,30.92-26.82,56-57.67,58.34h0C1504.27,1471.32,1494.3,1471.76,1483.41,1471.76z
		 M1250.02,1093.09c-17.27,0-34.63,1.55-51.85,4.72c-13.16,2.42-22.81,13.78-22.93,27.01c-0.48,51.24,10.5,148.81,89.54,226.61
		c84.46,83.14,190.17,88.51,245.67,84.31h0c13.58-1.03,24.49-12.09,25.38-25.73c3.62-55.24-3.13-159.84-89.01-239.8
		C1393.26,1120.34,1322.36,1093.09,1250.02,1093.09z"/>
</g>
<g class="st3">
	<path class="st1" d="M1166.4,1147.97c0,0-7.49-27.06,52.75-29.42c60.25-2.36,319.61,26.11,331.35,305.62
		c0,0,44.65-133.69-83.57-264.63c-128.21-130.94-284.18-87.03-284.18-87.03S1144.82,1069.17,1166.4,1147.97z"/>
</g>
<g>
	<path d="M1483.41,1471.76c-64.91,0-162.4-15.87-243.18-95.38c-88.25-86.87-100.52-195.1-99.98-251.89
		c0.28-29.95,21.98-55.65,51.59-61.1c49.14-9.05,100.54-6.47,148.63,7.45c48.4,14.01,93.43,39.52,130.21,73.77
		c96.46,89.82,104.11,206.28,100.08,267.71c-2.03,30.92-26.82,56-57.67,58.34h0C1504.27,1471.32,1494.3,1471.76,1483.41,1471.76z
		 M1250.02,1093.09c-17.27,0-34.63,1.55-51.85,4.72c-13.16,2.42-22.81,13.78-22.93,27.01c-0.48,51.24,10.5,148.81,89.54,226.61
		c84.46,83.14,190.17,88.51,245.67,84.31h0c13.58-1.03,24.49-12.09,25.38-25.73c3.62-55.24-3.13-159.84-89.01-239.8
		C1393.26,1120.34,1322.36,1093.09,1250.02,1093.09z"/>
</g>
<g>
	<path d="M1837.31,1457.36c-23.71,2.26-45.46-13.34-51.04-36.5c-14.22-59.08-27.26-176.88,53.18-282.6
		c62.51-82.16,160.23-129.11,262.15-127.94c23.08,0.26,42.81,16.67,46.94,39.38c10.26,56.34,16.75,166.09-56.02,267.46
		C2014.53,1425.81,1898.08,1451.56,1837.31,1457.36z"/>
	<path d="M1832.84,1475.07c-29.78,0-56.49-20.65-63.58-50.12c-15.25-63.37-28.21-186.26,56.26-297.29
		c32.22-42.34,74.6-77.05,122.57-100.36c47.67-23.17,100.81-35.08,153.71-34.49c31.45,0.36,58.35,22.96,63.96,53.75
		c10.77,59.16,17.43,174.3-59.02,280.8c-81.71,113.83-202.84,141.22-267.77,147.42C1836.92,1474.97,1834.87,1475.07,1832.84,1475.07
		z M1835.65,1439.94l1.66,17.42L1835.65,1439.94c59.02-5.63,169.02-30.4,242.66-132.98c68.91-96,62.8-200.42,53.02-254.12
		c-2.61-14.33-15.19-24.85-29.92-25.02c-96.86-1.09-189.52,44.15-248.03,121.04c-75.72,99.53-63.88,210.58-50.09,267.91
		C1806.81,1431.4,1820.73,1441.36,1835.65,1439.94z"/>
</g>
<g class="st3">
	<path class="st1" d="M2142.96,1079.23c0,0,2.99-29.97-61.13-21.49c-64.12,8.48-333.12,85.83-294.62,383.46
		c0,0-71.56-133.2,40.13-294.99c111.69-161.79,284.57-143.78,284.57-143.78S2151.42,991.99,2142.96,1079.23z"/>
</g>
<g>
	<path d="M1832.84,1475.07c-29.78,0-56.49-20.65-63.58-50.12c-15.25-63.37-28.21-186.26,56.26-297.29
		c32.22-42.34,74.6-77.05,122.57-100.36c47.67-23.17,100.81-35.08,153.71-34.49c31.45,0.36,58.35,22.96,63.96,53.75
		c10.77,59.16,17.43,174.3-59.02,280.8c-81.71,113.83-202.84,141.22-267.77,147.42C1836.92,1474.97,1834.87,1475.07,1832.84,1475.07
		z M1835.65,1439.94l1.66,17.42L1835.65,1439.94c59.02-5.63,169.02-30.4,242.66-132.98c68.91-96,62.8-200.42,53.02-254.12
		c-2.61-14.33-15.19-24.85-29.92-25.02c-96.86-1.09-189.52,44.15-248.03,121.04c-75.72,99.53-63.88,210.58-50.09,267.91
		C1806.81,1431.4,1820.73,1441.36,1835.65,1439.94z"/>
</g>
<g class="st4">
	<path d="M2200.34,551.11c0,0,237.54,253.07,116.46,632.8s-539.48,842.17-852.25,618.98c0,0,264.93,266.38,604.71,9.04
		s381.52-635.92,381.52-635.92c11.53-58.08,21.18-148.58-2.43-253.73C2400.3,708.34,2248.96,587,2200.34,551.11z"/>
</g>
<g>
	<path d="M1577.71,1574.17c-8.98-2.68-17.18,5.96-14.09,14.82c18.26,52.34,68.51,88.28,124.15,86.9
		c58.4-1.45,108.49-43.66,121.61-100.32c2.1-9.09-7.08-16.67-15.68-13.05c-25.07,10.54-60.58,21.73-104.12,24.47
		C1643.35,1589.89,1604.72,1582.24,1577.71,1574.17z"/>
	<path d="M1684.62,1688.43c-28.65,0-56.28-8.82-80.14-25.63c-24.59-17.32-42.8-41.42-52.66-69.7c-2.99-8.57-0.95-17.96,5.31-24.51
		c6.24-6.53,15.5-8.99,24.16-6.4h0c35.01,10.46,71.18,14.6,107.5,12.31c34.46-2.17,68.12-10.08,100.06-23.51
		c8.36-3.52,17.88-2.07,24.82,3.78c6.89,5.8,9.91,14.85,7.88,23.61c-6.99,30.18-24.04,57.76-48.02,77.66
		c-24.19,20.08-54.54,31.57-85.46,32.34C1686.93,1688.41,1685.77,1688.43,1684.62,1688.43z M1576.09,1586.73
		c17.1,46.44,62.62,77.87,111.38,76.67c51.86-1.29,96.48-37.6,109.24-88.59c-33.98,14.06-69.74,22.35-106.34,24.65
		C1651.76,1601.89,1613.32,1597.6,1576.09,1586.73z"/>
</g>
<g>
	<path class="st7" d="M1666.98,1677.42c1.07-5.71,9.16-45.08,47.33-66.88c34.48-19.69,68.52-10.76,74.84-8.97
		c-5.15,10.74-19.72,37.49-51.29,56.6C1707.83,1676.34,1678.98,1677.57,1666.98,1677.42z"/>
</g>
<g>
	<path d="M1684.62,1688.43c-28.65,0-56.28-8.82-80.14-25.63c-24.59-17.32-42.8-41.42-52.66-69.7c-2.99-8.57-0.95-17.96,5.31-24.51
		c6.24-6.53,15.5-8.99,24.16-6.4h0c35.01,10.46,71.18,14.6,107.5,12.31c34.46-2.17,68.12-10.08,100.06-23.51
		c8.36-3.52,17.88-2.07,24.82,3.78c6.89,5.8,9.91,14.85,7.88,23.61c-6.99,30.18-24.04,57.76-48.02,77.66
		c-24.19,20.08-54.54,31.57-85.46,32.34C1686.93,1688.41,1685.77,1688.43,1684.62,1688.43z M1576.09,1586.73
		c17.1,46.44,62.62,77.87,111.38,76.67c51.86-1.29,96.48-37.6,109.24-88.59c-33.98,14.06-69.74,22.35-106.34,24.65
		C1651.76,1601.89,1613.32,1597.6,1576.09,1586.73z"/>
</g>
</svg>
